<svg width="762" height="95" fill="white" xmlns="http://www.w3.org/2000/svg"><path d="M27.006 13.719v57.52L35.795 77H1.859l8.79-9.57V13.719l-8.497-5.81h33.643l-8.79 5.81Zm22.07 30.029L88.97 90.672 56.693 80.71 28.763 43.26 58.306 16.11l-6.543-8.203h27.002l-8.106 5.81-35.107 31.885 13.525-1.855Z" fill="#000"/><path d="m141 11.18 6.641-6.153V47.02c0 20.932-10.384 31.38-31.153 31.348-20.345 0-30.501-10.449-30.469-31.348v-33.3l-8.496-5.81h33.643l-8.789 5.81v33.984c0 8.008 1.53 13.819 4.59 17.432 3.06 3.613 7.959 5.42 14.697 5.42 6.771 0 11.686-1.807 14.746-5.42 3.06-3.614 4.59-9.424 4.59-17.432V11.18ZM203.041 70.457l16.26-15.723L216.225 77h-64.014L161 67.43V19.236h7.373L152.504 7.908h61.23l.635 21.143L201.576 14.5l-24.219-.488v24.12l12.061-.194 9.521-8.399v23.145l-5.81-8.399-15.772-.195v26.855l25.684-.488Z" fill="#000"/><path d="m277.484 8.738 10.157-5.761-35.352 80.859-30.371-70.166-8.496-5.762h37.646l-11.181 5.762 17.724 42.969 19.873-47.9Z" fill="#000"/><path d="m341.625 71.238 12.939 22.656-24.755-10.01-13.721-32.568-23.193 4.004-5.372 12.598L296.117 77h-26.562l8.886-5.762 22.901-55.127-14.6-13.574 28.125 5.371 26.758 63.33Zm-46.094-22.265 17.871-4.004L305.15 24.9l-9.619 24.073Z" fill="#000"/><path d="M344.828 74.607a126.321 126.321 0 0 0 29.053 3.37c10.937 0 19.401-1.775 25.39-5.323 6.023-3.58 9.034-8.724 9.034-15.43 0-4.59-1.595-8.495-4.785-11.718-3.191-3.255-8.204-6.006-15.04-8.252l-12.548-4.15c-5.176-1.595-8.855-3.24-11.036-4.932-2.148-1.725-3.222-3.841-3.222-6.348 0-5.892 5.078-8.854 15.234-8.887 3.19 0 5.974.293 8.35.88 2.409.585 4.28 1.171 5.615 1.757l2.002.83 6.934 11.768 6.152-18.506c-8.952-2.05-17.871-3.076-26.758-3.076-10.449 0-18.489 1.725-24.121 5.176-5.599 3.418-8.398 8.414-8.398 14.99 0 4.59 1.497 8.43 4.492 11.523 3.027 3.093 7.731 5.68 14.111 7.764l12.256 3.955c5.111 1.628 8.74 3.386 10.889 5.274 2.148 1.855 3.222 4.215 3.222 7.08 0 6.087-5.289 9.147-15.869 9.18-3.255 0-6.12-.261-8.594-.782-2.441-.553-4.394-1.123-5.859-1.709a50.519 50.519 0 0 1-2.197-.879l-.733-.39-6.298-12.745-7.276 19.58Z" fill="#000"/><path d="M407.699 74.607a126.321 126.321 0 0 0 29.053 3.37c10.937 0 19.401-1.775 25.391-5.323 6.022-3.58 9.033-8.724 9.033-15.43 0-4.59-1.595-8.495-4.785-11.718-3.19-3.255-8.203-6.006-15.039-8.252l-12.549-4.15c-5.176-1.595-8.854-3.24-11.035-4.932-2.149-1.725-3.223-3.841-3.223-6.348 0-5.892 5.078-8.854 15.234-8.887 3.19 0 5.974.293 8.35.88 2.409.585 4.281 1.171 5.615 1.757l2.002.83 6.934 11.768 6.152-18.506c-8.952-2.05-17.871-3.076-26.758-3.076-10.449 0-18.489 1.725-24.121 5.176-5.599 3.418-8.398 8.414-8.398 14.99 0 4.59 1.497 8.43 4.492 11.523 3.027 3.093 7.731 5.68 14.111 7.764l12.256 3.955c5.111 1.628 8.74 3.386 10.889 5.274 2.148 1.855 3.222 4.215 3.222 7.08 0 6.087-5.289 9.147-15.869 9.18-3.255 0-6.12-.261-8.594-.782-2.441-.553-4.394-1.123-5.859-1.709a50.519 50.519 0 0 1-2.197-.879l-.733-.39-6.298-12.745-7.276 19.58ZM473.012 43.895c0 10.677 3.108 19.026 9.326 25.048 6.217 6.023 14.795 9.034 25.732 9.034 7.487 0 14.014-1.547 19.58-4.64 5.567-3.124 9.88-7.502 12.94-13.134 3.06-5.664 4.59-12.32 4.59-19.97 0-10.45-3.093-18.67-9.278-24.659-6.185-5.99-14.746-8.984-25.683-8.984-7.455 0-13.981 1.546-19.58 4.639-5.567 3.06-9.896 7.389-12.989 12.988-3.092 5.599-4.638 12.158-4.638 19.678Zm55.224-.342c0 9.342-1.562 16.308-4.687 20.898s-7.845 6.885-14.16 6.885c-6.022 0-10.743-2.67-14.16-8.008-3.418-5.371-5.127-12.94-5.127-22.705 0-9.212 1.562-16.064 4.687-20.557 3.125-4.492 7.829-6.738 14.111-6.738 6.023 0 10.743 2.637 14.161 7.91 3.45 5.274 5.175 12.712 5.175 22.315Zm-11.084-1.27-8.007-12.256-8.008 12.256 8.008 12.207 8.007-12.207Z" fill="#000"/><path d="M593.744 7.957h24.317l-8.448 9.13v72.657l-52.441-66.553.879 47.852v.195L566.84 77h-24.707l8.887-9.522V15.477L537.445 1.17l28.174 6.787 37.647 48.242-.733-42.285v-.195l-8.789-5.762Z" fill="#000"/><path d="M669.896 7.957h24.317l-8.447 9.13v72.657l-52.442-66.553.879 47.852v.195L642.992 77h-24.707l8.887-9.522V15.477L613.598 1.17l28.173 6.787 37.647 48.242-.732-42.285v-.195l-8.79-5.762Z" fill="#000"/><path d="m744.291 70.457 16.26-15.723L757.475 77h-64.014l8.789-9.57V19.236h7.373L693.754 7.908h61.23l.635 21.143L742.826 14.5l-24.219-.488v24.12l12.061-.194 9.521-8.399v23.145l-5.81-8.399-15.772-.195v26.855l25.684-.488Z" fill="#000"/><path d="M27.006 13.719v57.52L35.795 77H1.859l8.79-9.57V13.719l-8.497-5.81h33.643l-8.79 5.81Zm22.07 30.029L88.97 90.672 56.693 80.71 28.763 43.26 58.306 16.11l-6.543-8.203h27.002l-8.106 5.81-35.107 31.885 13.525-1.855Z" stroke="#000"/><path d="m141 11.18 6.641-6.153V47.02c0 20.932-10.384 31.38-31.153 31.348-20.345 0-30.501-10.449-30.469-31.348v-33.3l-8.496-5.81h33.643l-8.789 5.81v33.984c0 8.008 1.53 13.819 4.59 17.432 3.06 3.613 7.959 5.42 14.697 5.42 6.771 0 11.686-1.807 14.746-5.42 3.06-3.614 4.59-9.424 4.59-17.432V11.18ZM203.041 70.457l16.26-15.723L216.225 77h-64.014L161 67.43V19.236h7.373L152.504 7.908h61.23l.635 21.143L201.576 14.5l-24.219-.488v24.12l12.061-.194 9.521-8.399v23.145l-5.81-8.399-15.772-.195v26.855l25.684-.488Z" stroke="#000"/><path d="m277.484 8.738 10.157-5.761-35.352 80.859-30.371-70.166-8.496-5.762h37.646l-11.181 5.762 17.724 42.969 19.873-47.9Z" stroke="#000"/><path d="m341.625 71.238 12.939 22.656-24.755-10.01-13.721-32.568-23.193 4.004-5.372 12.598L296.117 77h-26.562l8.886-5.762 22.901-55.127-14.6-13.574 28.125 5.371 26.758 63.33Zm-46.094-22.265 17.871-4.004L305.15 24.9l-9.619 24.073Z" stroke="#000"/><path d="M344.828 74.607a126.321 126.321 0 0 0 29.053 3.37c10.937 0 19.401-1.775 25.39-5.323 6.023-3.58 9.034-8.724 9.034-15.43 0-4.59-1.595-8.495-4.785-11.718-3.191-3.255-8.204-6.006-15.04-8.252l-12.548-4.15c-5.176-1.595-8.855-3.24-11.036-4.932-2.148-1.725-3.222-3.841-3.222-6.348 0-5.892 5.078-8.854 15.234-8.887 3.19 0 5.974.293 8.35.88 2.409.585 4.28 1.171 5.615 1.757l2.002.83 6.934 11.768 6.152-18.506c-8.952-2.05-17.871-3.076-26.758-3.076-10.449 0-18.489 1.725-24.121 5.176-5.599 3.418-8.398 8.414-8.398 14.99 0 4.59 1.497 8.43 4.492 11.523 3.027 3.093 7.731 5.68 14.111 7.764l12.256 3.955c5.111 1.628 8.74 3.386 10.889 5.274 2.148 1.855 3.222 4.215 3.222 7.08 0 6.087-5.289 9.147-15.869 9.18-3.255 0-6.12-.261-8.594-.782-2.441-.553-4.394-1.123-5.859-1.709a50.519 50.519 0 0 1-2.197-.879l-.733-.39-6.298-12.745-7.276 19.58Z" stroke="#000"/><path d="M407.699 74.607a126.321 126.321 0 0 0 29.053 3.37c10.937 0 19.401-1.775 25.391-5.323 6.022-3.58 9.033-8.724 9.033-15.43 0-4.59-1.595-8.495-4.785-11.718-3.19-3.255-8.203-6.006-15.039-8.252l-12.549-4.15c-5.176-1.595-8.854-3.24-11.035-4.932-2.149-1.725-3.223-3.841-3.223-6.348 0-5.892 5.078-8.854 15.234-8.887 3.19 0 5.974.293 8.35.88 2.409.585 4.281 1.171 5.615 1.757l2.002.83 6.934 11.768 6.152-18.506c-8.952-2.05-17.871-3.076-26.758-3.076-10.449 0-18.489 1.725-24.121 5.176-5.599 3.418-8.398 8.414-8.398 14.99 0 4.59 1.497 8.43 4.492 11.523 3.027 3.093 7.731 5.68 14.111 7.764l12.256 3.955c5.111 1.628 8.74 3.386 10.889 5.274 2.148 1.855 3.222 4.215 3.222 7.08 0 6.087-5.289 9.147-15.869 9.18-3.255 0-6.12-.261-8.594-.782-2.441-.553-4.394-1.123-5.859-1.709a50.519 50.519 0 0 1-2.197-.879l-.733-.39-6.298-12.745-7.276 19.58ZM473.012 43.895c0 10.677 3.108 19.026 9.326 25.048 6.217 6.023 14.795 9.034 25.732 9.034 7.487 0 14.014-1.547 19.58-4.64 5.567-3.124 9.88-7.502 12.94-13.134 3.06-5.664 4.59-12.32 4.59-19.97 0-10.45-3.093-18.67-9.278-24.659-6.185-5.99-14.746-8.984-25.683-8.984-7.455 0-13.981 1.546-19.58 4.639-5.567 3.06-9.896 7.389-12.989 12.988-3.092 5.599-4.638 12.158-4.638 19.678Zm55.224-.342c0 9.342-1.562 16.308-4.687 20.898s-7.845 6.885-14.16 6.885c-6.022 0-10.743-2.67-14.16-8.008-3.418-5.371-5.127-12.94-5.127-22.705 0-9.212 1.562-16.064 4.687-20.557 3.125-4.492 7.829-6.738 14.111-6.738 6.023 0 10.743 2.637 14.161 7.91 3.45 5.274 5.175 12.712 5.175 22.315Zm-11.084-1.27-8.007-12.256-8.008 12.256 8.008 12.207 8.007-12.207Z" stroke="#000"/><path d="M593.744 7.957h24.317l-8.448 9.13v72.657l-52.441-66.553.879 47.852v.195L566.84 77h-24.707l8.887-9.522V15.477L537.445 1.17l28.174 6.787 37.647 48.242-.733-42.285v-.195l-8.789-5.762Z" stroke="#000"/><path d="M669.896 7.957h24.317l-8.447 9.13v72.657l-52.442-66.553.879 47.852v.195L642.992 77h-24.707l8.887-9.522V15.477L613.598 1.17l28.173 6.787 37.647 48.242-.732-42.285v-.195l-8.79-5.762Z" stroke="#000"/><path d="m744.291 70.457 16.26-15.723L757.475 77h-64.014l8.789-9.57V19.236h7.373L693.754 7.908h61.23l.635 21.143L742.826 14.5l-24.219-.488v24.12l12.061-.194 9.521-8.399v23.145l-5.81-8.399-15.772-.195v26.855l25.684-.488Z" stroke="#000"/></svg>
